<?xml version="1.0" encoding="utf-8"?>

<!DOCTYPE svg PUBLIC "-//W3C//DTD SVG 1.1//EN" "http://www.w3.org/Graphics/SVG/1.1/DTD/svg11.dtd">
<svg version="1.1" id="Layer_1" xmlns="http://www.w3.org/2000/svg" xmlns:xlink="http://www.w3.org/1999/xlink" x="0px" y="0px"
	 viewBox="0 0 1668.411 1668.411" enable-background="new 0 0 1668.411 1668.411" xml:space="preserve">
<g>
	<path id="path7" fill="#010101" d="M965.376,240.983v-60.694c-5.717-28.402-11.356-56.83-41.115-82.883c0,0-2.676-59.323,0-61.999
		c2.689-2.702-172.28,0-172.28,0V96.74c-45.553,35.49-44.822,74.164-48.947,103.754v2.637v256.481
		c0,13.026,10.142,23.482,22.842,23.482c12.674,0,22.842-10.455,22.842-23.482V321.256h7.831v195.787
		c0,13,10.168,23.482,22.842,23.482s22.842-10.481,22.842-23.482V321.256h7.166v227.1c-0.013,13.026,10.181,23.507,22.829,23.507
		c12.7,0,22.855-10.481,22.855-23.507v-227.1h8.484v195.787c0,13,10.155,23.482,22.842,23.482c12.674,0,22.842-10.481,22.842-23.482
		V321.256h6.526v70.457c10.324,28.99,28.572,35.685,49.599,34.589C965.376,426.302,965.376,240.983,965.376,240.983z"/>
	<path id="path7_1_" fill="#010101" d="M507.486,321.982l-42.917-42.917c-24.126-16.041-48.215-32.156-87.68-29.534
		c0,0-43.84-40.056-43.84-43.84c-0.009-3.812-121.82,121.82-121.82,121.82l43.369,43.369
		c-7.116,57.306,20.748,84.136,38.755,107.976l1.864,1.864l181.36,181.36c9.211,9.211,23.775,9.432,32.755,0.452
		c8.962-8.962,8.759-23.544-0.452-32.755l-97.833-97.833l5.538-5.538l138.442,138.442c9.193,9.193,23.794,9.414,32.755,0.452
		c8.962-8.962,8.74-23.563-0.452-32.755L448.887,494.103l5.067-5.067L614.539,649.62c9.202,9.22,23.821,9.423,32.765,0.48
		c8.98-8.98,8.75-23.572-0.461-32.783L486.258,456.733l5.999-5.999l138.442,138.442c9.193,9.193,23.784,9.424,32.755,0.452
		c8.962-8.962,8.74-23.563-0.452-32.755L524.56,418.431l4.615-4.615l49.821,49.821c27.799,13.198,45.437,5.03,59.53-10.614
		C638.526,453.022,507.486,321.982,507.486,321.982z"/>
	<path id="path7_2_" fill="#010101" d="M240.983,703.035h-60.694c-28.402,5.717-56.83,11.356-82.883,41.115
		c0,0-59.323,2.676-61.999,0c-2.702-2.689,0,172.28,0,172.28H96.74c35.49,45.553,74.164,44.822,103.754,48.947h2.637h256.481
		c13.026,0,23.482-10.142,23.482-22.842c0-12.674-10.455-22.842-23.482-22.842H321.256v-7.831h195.787
		c13,0,23.482-10.168,23.482-22.842s-10.481-22.842-23.482-22.842H321.256v-7.166h227.1c13.026,0.013,23.507-10.181,23.507-22.829
		c0-12.7-10.481-22.855-23.507-22.855h-227.1v-8.484h195.787c13,0,23.482-10.155,23.482-22.842
		c0-12.674-10.481-22.842-23.482-22.842H321.256v-6.526h70.457c28.99-10.324,35.685-28.572,34.589-49.599
		C426.302,703.035,240.983,703.035,240.983,703.035z"/>
	<path id="path7_3_" fill="#010101" d="M321.982,1160.925l-42.917,42.917c-16.041,24.126-32.156,48.215-29.534,87.68
		c0,0-40.056,43.84-43.84,43.84c-3.812,0.009,121.82,121.82,121.82,121.82l43.369-43.37c57.306,7.116,84.136-20.748,107.976-38.755
		l1.864-1.864l181.36-181.36c9.211-9.211,9.432-23.775,0.452-32.755c-8.962-8.962-23.544-8.759-32.755,0.452l-97.833,97.833
		l-5.538-5.538l138.442-138.442c9.193-9.193,9.414-23.794,0.452-32.755c-8.962-8.962-23.563-8.74-32.755,0.452l-138.442,138.442
		l-5.067-5.067l160.584-160.584c9.22-9.202,9.423-23.821,0.48-32.765c-8.98-8.98-23.572-8.75-32.783,0.461l-160.584,160.584
		l-5.999-5.999l138.442-138.443c9.193-9.193,9.424-23.784,0.452-32.755c-8.962-8.962-23.563-8.74-32.755,0.452l-138.442,138.442
		l-4.615-4.615l49.821-49.821c13.198-27.799,5.03-45.437-10.614-59.53C453.022,1029.885,321.982,1160.925,321.982,1160.925z"/>
	<path id="path7_4_" fill="#010101" d="M703.035,1427.428v60.694c5.717,28.402,11.356,56.83,41.115,82.883
		c0,0,2.676,59.323,0,61.999c-2.689,2.702,172.28,0,172.28,0v-61.334c45.553-35.49,44.822-74.164,48.947-103.754v-2.636v-256.481
		c0-13.026-10.142-23.481-22.842-23.481c-12.674,0-22.842,10.455-22.842,23.481v138.356h-7.831v-195.787
		c0-13-10.168-23.482-22.842-23.482s-22.842,10.481-22.842,23.482v195.787h-7.166v-227.1c0.013-13.026-10.181-23.507-22.829-23.507
		c-12.7,0-22.855,10.481-22.855,23.507v227.1h-8.484v-195.787c0-13-10.155-23.482-22.842-23.482
		c-12.674,0-22.842,10.481-22.842,23.482v195.787h-6.526v-70.457c-10.324-28.99-28.572-35.685-49.599-34.589
		C703.035,1242.109,703.035,1427.428,703.035,1427.428z"/>
	<path id="path7_5_" fill="#010101" d="M1160.925,1346.429l42.917,42.917c24.126,16.041,48.215,32.156,87.68,29.534
		c0,0,43.84,40.056,43.84,43.84c0.009,3.812,121.82-121.82,121.82-121.82l-43.37-43.37c7.116-57.306-20.748-84.136-38.755-107.976
		l-1.864-1.864l-181.36-181.36c-9.211-9.211-23.775-9.432-32.755-0.452c-8.962,8.962-8.759,23.544,0.452,32.756l97.833,97.833
		l-5.538,5.538l-138.442-138.442c-9.193-9.193-23.794-9.414-32.755-0.452c-8.962,8.962-8.74,23.563,0.452,32.756l138.442,138.442
		l-5.067,5.067l-160.584-160.584c-9.202-9.22-23.821-9.423-32.765-0.48c-8.98,8.98-8.75,23.572,0.461,32.783l160.584,160.584
		l-5.999,5.999l-138.443-138.443c-9.193-9.193-23.784-9.423-32.755-0.452c-8.962,8.962-8.74,23.563,0.452,32.755l138.442,138.443
		l-4.615,4.615l-49.821-49.821c-27.799-13.198-45.437-5.03-59.53,10.614C1029.885,1215.389,1160.925,1346.429,1160.925,1346.429z"/>
	<path id="path7_6_" fill="#010101" d="M1427.428,965.376h60.694c28.402-5.717,56.83-11.356,82.883-41.115
		c0,0,59.323-2.676,61.999,0c2.702,2.689,0-172.28,0-172.28h-61.334c-35.49-45.553-74.164-44.822-103.754-48.947h-2.636h-256.481
		c-13.026,0-23.481,10.142-23.481,22.842c0,12.674,10.455,22.842,23.481,22.842h138.356v7.831h-195.787
		c-13,0-23.482,10.168-23.482,22.842s10.481,22.842,23.482,22.842h195.787v7.166h-227.1c-13.026-0.013-23.507,10.181-23.507,22.829
		c0,12.7,10.481,22.855,23.507,22.855h227.1v8.484h-195.787c-13,0-23.482,10.155-23.482,22.842
		c0,12.674,10.481,22.842,23.482,22.842h195.787v6.526h-70.457c-28.99,10.324-35.685,28.572-34.589,49.599
		C1242.109,965.376,1427.428,965.376,1427.428,965.376z"/>
	<path id="path7_7_" fill="#010101" d="M1346.429,507.486l42.917-42.917c16.041-24.126,32.156-48.215,29.534-87.68
		c0,0,40.056-43.84,43.84-43.84c3.812-0.009-121.82-121.82-121.82-121.82l-43.37,43.369c-57.306-7.116-84.136,20.748-107.976,38.755
		l-1.864,1.864l-181.36,181.36c-9.211,9.211-9.432,23.775-0.452,32.755c8.962,8.962,23.544,8.759,32.756-0.452l97.833-97.833
		l5.538,5.538l-138.442,138.442c-9.193,9.193-9.414,23.794-0.452,32.755c8.962,8.962,23.563,8.74,32.756-0.452l138.442-138.442
		l5.067,5.067L1018.79,614.539c-9.22,9.202-9.423,23.821-0.48,32.765c8.98,8.98,23.572,8.75,32.783-0.461l160.584-160.584
		l5.999,5.999l-138.443,138.442c-9.193,9.193-9.423,23.784-0.452,32.755c8.962,8.962,23.563,8.74,32.755-0.452L1249.98,524.56
		l4.615,4.615l-49.821,49.821c-13.198,27.799-5.03,45.437,10.614,59.53C1215.389,638.526,1346.429,507.486,1346.429,507.486z"/>
</g>
</svg>
